<svg xmlns="http://www.w3.org/2000/svg" width="32" height="32" viewBox="0 0 32 32">
  <defs>
    <linearGradient id="applescript-a" x1="50%" x2="50%" y1="0%" y2="100%">
      <stop offset="0%" stop-color="#B0C3CB"/>
      <stop offset="100%" stop-color="#78909C"/>
    </linearGradient>
    <linearGradient id="applescript-b" x1="50%" x2="50%" y1="0%" y2="100%">
      <stop offset="0%" stop-color="#B0C3CB"/>
      <stop offset="100%" stop-color="#78909C"/>
    </linearGradient>
  </defs>
  <g fill="none" fill-rule="evenodd">
    <path fill="url(#applescript-a)" d="M19.5651699,5.76705491 C18.7489124,6.8452579 17.3204617,7.65723794 16.0008454,7.49750416 C15.7151553,6.09983361 16.5042042,4.70216306 17.238836,3.81031614 C18.1775321,2.73211314 19.6603999,2 20.9392034,2 C21.0208291,3.39767055 20.503866,4.7687188 19.5651699,5.76705491 Z"/>
    <path fill="url(#applescript-b)" d="M20.8167648,7.80366057 C21.6738352,7.80366057 23.9593562,8.05657238 25.3742026,10.1863561 C25.2653682,10.2529118 22.6669485,11.6638935 22.6669485,14.7920133 C22.7893871,18.359401 25.9455828,19.6106489 26,19.6106489 C25.9455828,19.6772047 25.5238498,21.3144759 24.2722549,23.031614 C23.2791416,24.5091514 22.177194,26 20.503866,26 C18.9121639,26 18.3407836,25.014975 16.5042042,25.014975 C14.5315819,25.014975 13.9738059,26 12.4637295,26 C10.7904016,26 9.60682819,24.4292845 8.55929771,22.9650582 C7.19886851,21.0482529 6.0425037,18.0399334 6.00169082,15.1514143 C5.97448224,13.6206323 6.27377666,12.1164725 7.03561701,10.8386023 C8.11035607,9.05490849 10.0285612,7.84359401 12.1236222,7.80366057 C13.7289287,7.75041597 15.1573793,8.88186356 16.1368883,8.88186356 C17.0755845,8.88186356 18.8305381,7.80366057 20.8167648,7.80366057 Z"/>
  </g>
</svg>
