<svg xmlns="http://www.w3.org/2000/svg" width="32" height="32" viewBox="0 0 32 32">
  <defs>
    <linearGradient id="changelog-a" x1="95.002%" x2="10.217%" y1="100%" y2="0%">
      <stop offset="0%" stop-color="#AEE33E"/>
      <stop offset="100%" stop-color="#D7FF81"/>
    </linearGradient>
    <linearGradient id="changelog-b" x1="50%" x2="50%" y1="0%" y2="100%">
      <stop offset="0%" stop-color="#B1E8F8"/>
      <stop offset="100%" stop-color="#7ACCEE"/>
    </linearGradient>
  </defs>
  <g fill="none" fill-rule="evenodd" transform="translate(5 5)">
    <path fill="url(#changelog-a)" d="M11,13 L5,13 L5,11 L10,11 L10,6 L12,6 L12,12 C12,12.553 11.552,13 11,13 Z"/>
    <path fill="url(#changelog-b)" fill-rule="nonzero" d="M20,12 C20,16.963 15.963,21 11,21 C6.037,21 2,16.963 2,12 C2,7.037 6.037,3 11,3 C12.989,3 14.873,3.65 16.43,4.833 L12.826,8.226 L21.993,9.209 L21.562,0 L17.907,3.442 C15.957,1.862 13.545,1 11,1 C4.935,1 0,5.935 0,12 C0,18.065 4.935,23 11,23 C17.065,23 22,18.065 22,12 L20,12 Z"/>
  </g>
</svg>
