<svg xmlns="http://www.w3.org/2000/svg" width="32" height="32" viewBox="0 0 32 32">
  <defs>
    <linearGradient id="cmd-a" x1="50%" x2="50%" y1="0%" y2="100%">
      <stop offset="0%" stop-color="#B1E8F8"/>
      <stop offset="100%" stop-color="#7ACCEE"/>
    </linearGradient>
    <linearGradient id="cmd-b" x1="50%" x2="50%" y1="0%" y2="100%">
      <stop offset="0%" stop-color="#B1E8F8"/>
      <stop offset="100%" stop-color="#7ACCEE"/>
    </linearGradient>
    <linearGradient id="cmd-c" x1="50%" x2="50%" y1="0%" y2="100%">
      <stop offset="0%" stop-color="#6B9EDF"/>
      <stop offset="100%" stop-color="#3965BD"/>
    </linearGradient>
  </defs>
  <g fill="none" transform="translate(4 5)">
    <path fill="url(#cmd-a)" d="M4,3 L4,0 L1,0 C0.448,0 0,0.448 0,1 L0,3 L4,3 Z"/>
    <path fill="url(#cmd-b)" d="M24,3 L24,1 C24,0.448 23.552,0 23,0 L6,0 L6,3 L24,3 Z"/>
    <path fill="url(#cmd-c)" d="M0,5 L0,21 C0,21.552 0.448,22 1,22 L23,22 C23.552,22 24,21.552 24,21 L24,5 L0,5 Z M8.707,13.707 L5,17.414 L3.586,16 L6.586,13 L3.586,10 L5,8.586 L8.707,12.293 C9.098,12.684 9.098,13.316 8.707,13.707 Z M17,17 L11,17 L11,15 L17,15 L17,17 Z"/>
  </g>
</svg>
