<svg xmlns="http://www.w3.org/2000/svg" width="32" height="32" viewBox="0 0 32 32">
  <defs>
    <linearGradient id="css-a" x1="50%" x2="50%" y1="0%" y2="100%">
      <stop offset="0%" stop-color="#6B9EDF"/>
      <stop offset="100%" stop-color="#3965BD"/>
    </linearGradient>
  </defs>
  <g fill="none" transform="translate(5 3)">
    <path fill="url(#css-a)" d="M21.9236932,0.968373541 L19.9318795,23.4395969 L10.9786027,25.9392996 L2.04997808,23.4431175 L0.0602739726,0.968373541 L21.9236932,0.968373541 Z M10.9919836,11.1415767 L4.6216274,11.1415767 L4.86694247,13.8979813 L10.9919836,13.8979813 L14.3529205,13.8979813 L14.0352164,17.47287 L10.9825205,18.3028759 L10.979989,18.3035549 L7.93169315,17.4746304 L7.7368274,15.2762444 L6.25559452,15.2762444 L4.98923836,15.2762444 L5.37270137,19.6042428 L10.9793863,21.1717089 L10.9919836,21.1677323 L16.5936658,19.6042428 L16.6348329,19.1385494 L17.2780164,11.8817572 L17.3448,11.1415767 L17.838926,5.56248249 L10.9919836,5.56248249 L10.9825205,5.56248249 L4.12870685,5.56248249 L4.37751781,8.31894786 L10.9919836,8.31894786 L14.8393315,8.31894786 L14.5902795,11.1415767 L10.9919836,11.1415767 Z"/>
    <path fill="#7ACCEE" d="M10.9919836,21.1677323 L16.5936658,19.6042428 L16.6348329,19.1385494 L17.2780164,11.8817572 L17.3448,11.1415767 L17.838926,5.56248249 L10.9919836,5.56248249 L10.9919836,0.968373541 L21.9256588,0.968373541 L19.9316447,23.4496041 L10.9919836,25.9392996 L10.9919836,21.1677323 Z M10.9919836,18.3003029 L10.9919836,13.8979813 L14.3529205,13.8979813 L14.0352164,17.47287 L10.9919836,18.3003029 Z M10.9919836,11.1415767 L10.9919836,8.31894786 L14.8393315,8.31894786 L14.5902795,11.1415767 L10.9919836,11.1415767 Z"/>
  </g>
</svg>
