<svg xmlns="http://www.w3.org/2000/svg" width="32" height="32" viewBox="0 0 32 32">
  <defs>
    <linearGradient id="file_mdx-a" x1="50%" x2="50%" y1="0%" y2="100%">
      <stop offset="0%" stop-color="#636B7A"/>
      <stop offset="100%" stop-color="#343944"/>
    </linearGradient>
    <linearGradient id="file_mdx-b" x1="50%" x2="50%" y1="0%" y2="100%">
      <stop offset="0%" stop-color="#636B7A"/>
      <stop offset="100%" stop-color="#343944"/>
    </linearGradient>
    <linearGradient id="file_mdx-c" x1="50%" x2="50%" y1="0%" y2="100%">
      <stop offset="0%" stop-color="#FAE1AD"/>
      <stop offset="100%" stop-color="#F4BF75"/>
    </linearGradient>
  </defs>
  <g fill="none" fill-rule="evenodd" transform="translate(4 12)">
    <polygon fill="url(#file_mdx-a)" points=".001 7.677 1.226 7.677 1.226 3.579 3.586 6.145 5.761 3.579 5.761 7.625 7.127 7.625 7.127 0 3.457 3.874 0 .225"/>
    <polygon fill="url(#file_mdx-b)" points="8.842 4.401 9.774 3.417 11.508 5.247 11.508 0 12.768 0 12.768 5.206 14.472 3.407 15.414 4.402 12.128 7.97"/>
    <polygon fill="url(#file_mdx-c)" points="16.506 6.872 17.359 7.773 20.06 4.921 22.572 7.773 23.47 6.728 20.826 3.937 23.649 .957 22.743 0 19.988 2.907 17.271 0 16.421 .957 19.025 3.937"/>
  </g>
</svg>
