<svg id="Layer_1" data-name="Layer 1" xmlns="http://www.w3.org/2000/svg" xmlns:xlink="http://www.w3.org/1999/xlink" viewBox="0 0 24 24"><defs><style>.cls-1{fill:#6a9fb5;}.cls-2{fill:#80cbc4;}.cls-3{fill:url(#linear-gradient);}.cls-4{fill:#ff6e9f;}</style><linearGradient id="linear-gradient" x1="12" y1="3" x2="12" y2="21" gradientUnits="userSpaceOnUse"><stop offset="0" stop-color="#fff" stop-opacity="0.25"/><stop offset="1" stop-opacity="0"/></linearGradient></defs><title>folder_src_open</title><path class="cls-1" d="M21.32,21.32l-1.14-1.14,1.87-1.87-1.87-1.87,1.14-1.13,2.44,2.43a.8.8,0,0,1,0,1.14Z"/><path class="cls-1" d="M13.68,21.32l-2.44-2.44a.8.8,0,0,1,0-1.14l2.44-2.43,1.14,1.13L13,18.31l1.87,1.87Z"/><path class="cls-2" d="M10.54,19.59a1.79,1.79,0,0,1-.48-.84H3.2V7.5H20.8v5.1a1.82,1.82,0,0,1,.09,1.4l-.09.26v.15l.52-.52L23,15.57V7.5a2.23,2.23,0,0,0-2.2-2.25H12L9.8,3H3.2A2.23,2.23,0,0,0,1,5.25v13.5A2.23,2.23,0,0,0,3.2,21H12Z"/><path class="cls-3" d="M10.54,19.59a1.79,1.79,0,0,1-.48-.84H3.2V7.5H20.8v5.1a1.82,1.82,0,0,1,.09,1.4l-.09.26v.15l.52-.52L23,15.57V7.5a2.23,2.23,0,0,0-2.2-2.25H12L9.8,3H3.2A2.23,2.23,0,0,0,1,5.25v13.5A2.23,2.23,0,0,0,3.2,21H12Z"/><line class="cls-2" x1="14.8" y1="18.75" x2="15.3" y2="19.24"/><path class="cls-4" d="M15.87,24a.29.29,0,0,1-.24-.08.82.82,0,0,1-.49-1.06l3.25-9.75a.83.83,0,1,1,1.55.57l-3.25,9.75A1,1,0,0,1,15.87,24Z"/></svg>