<svg id="Layer_1" data-name="Layer 1" xmlns="http://www.w3.org/2000/svg" xmlns:xlink="http://www.w3.org/1999/xlink" viewBox="0 0 24 24"><defs><style>.cls-1{fill:#4a616c;}.cls-2{fill:url(#New_Gradient_Swatch_copy);}.cls-3{fill:#6a9fb5;}.cls-4{fill:#ff6e9f;}</style><linearGradient id="New_Gradient_Swatch_copy" x1="12" y1="3" x2="12" y2="20.82" gradientUnits="userSpaceOnUse"><stop offset="0" stop-color="#fff" stop-opacity="0.18"/><stop offset="0.29" stop-color="#e6e6e6" stop-opacity="0.16"/><stop offset="0.6" stop-color="#9d9d9d" stop-opacity="0.11"/><stop offset="0.92" stop-color="#242424" stop-opacity="0.03"/><stop offset="1" stop-opacity="0"/></linearGradient></defs><title>folder_src</title><path class="cls-1" d="M10.54,19.59A1.79,1.79,0,0,1,10,18.31,1.76,1.76,0,0,1,10.54,17l3.14-3.15,2.55,2.55,1.22-3.64a1.83,1.83,0,0,1,1.7-1.23,1.93,1.93,0,0,1,.62.11A1.82,1.82,0,0,1,20.89,14l-.17.49.6-.6L23,15.57V7.4a2.22,2.22,0,0,0-2.2-2.2H12L9.8,3H3.2A2.22,2.22,0,0,0,1,5.2V18.8a2,2,0,0,0,2.2,2h8.55Z"/><path class="cls-2" d="M10.54,19.59A1.79,1.79,0,0,1,10,18.31,1.76,1.76,0,0,1,10.54,17l3.14-3.15,2.55,2.55,1.22-3.64a1.83,1.83,0,0,1,1.7-1.23,1.93,1.93,0,0,1,.62.11A1.82,1.82,0,0,1,20.89,14l-.17.49.6-.6L23,15.57V7.4a2.22,2.22,0,0,0-2.2-2.2H12L9.8,3H3.2A2.22,2.22,0,0,0,1,5.2V18.8a2,2,0,0,0,2.2,2h8.55Z"/><path class="cls-3" d="M21.32,21.32l-1.14-1.14,1.87-1.87-1.87-1.87,1.14-1.13,2.44,2.43a.8.8,0,0,1,0,1.14Z"/><path class="cls-3" d="M13.68,21.32l-2.44-2.44a.8.8,0,0,1,0-1.14l2.44-2.43,1.14,1.13L13,18.31l1.87,1.87Z"/><path class="cls-4" d="M15.87,24a.29.29,0,0,1-.24-.08.82.82,0,0,1-.49-1.06l3.25-9.75a.83.83,0,1,1,1.55.57l-3.25,9.75A1,1,0,0,1,15.87,24Z"/></svg>