<svg id="Layer_1" data-name="Layer 1" xmlns="http://www.w3.org/2000/svg" viewBox="0 0 24 24"><defs><style>.cls-1{fill:#3965bd;}.cls-2{fill:#7accee;}.cls-3{fill:#4a616c;}</style></defs><title>folder_css</title><polygon class="cls-1" points="24 10 22.88 22.6 17.86 24 12.86 22.6 11.74 10 24 10"/><polygon class="cls-2" points="22.88 22.6 24 10 17.92 10 17.86 24 22.88 22.6"/><polygon points="17.87 12.58 17.87 12.58 14.02 12.58 14.16 14.12 17.87 14.12 17.87 14.12 20.03 14.12 19.89 15.7 17.87 15.7 17.87 15.7 14.3 15.7 14.44 17.25 17.87 17.25 17.87 17.25 19.75 17.25 19.58 19.25 17.87 19.72 17.87 19.72 17.86 19.72 16.16 19.25 16.05 18.02 15.22 18.02 14.51 18.02 14.72 20.45 17.86 21.33 17.87 21.32 17.87 21.32 21.01 20.45 21.04 20.19 21.39 16.12 21.43 15.7 21.71 12.58 17.87 12.58"/><path class="cls-3" d="M10.65,9H23V7.4a2.22,2.22,0,0,0-2.2-2.2H12L9.8,3H3.2A2.22,2.22,0,0,0,1,5.2V18.8a2,2,0,0,0,2.2,2h8.49Z"/></svg>