<svg id="Layer_1" data-name="Layer 1" xmlns="http://www.w3.org/2000/svg" xmlns:xlink="http://www.w3.org/1999/xlink" viewBox="0 0 24 24"><defs><style>.cls-1{fill:#4a616c;}.cls-2{fill:url(#New_Gradient_Swatch_copy);}</style><linearGradient id="New_Gradient_Swatch_copy" x1="12" y1="3.09" x2="12" y2="20.91" gradientUnits="userSpaceOnUse"><stop offset="0" stop-color="#fff" stop-opacity="0.18"/><stop offset="0.29" stop-color="#e6e6e6" stop-opacity="0.16"/><stop offset="0.6" stop-color="#9d9d9d" stop-opacity="0.11"/><stop offset="0.92" stop-color="#242424" stop-opacity="0.03"/><stop offset="1" stop-opacity="0"/></linearGradient></defs><title>folder_dark</title><path class="cls-1" d="M9.8,3.09,12,5.29h8.8A2.22,2.22,0,0,1,23,7.49v11.2a2.22,2.22,0,0,1-2.2,2.2H3.2a2,2,0,0,1-2.2-2V5.29a2.22,2.22,0,0,1,2.2-2.2Z"/><path class="cls-2" d="M9.8,3.09,12,5.29h8.8A2.22,2.22,0,0,1,23,7.49v11.2a2.22,2.22,0,0,1-2.2,2.2H3.2a2,2,0,0,1-2.2-2V5.29a2.22,2.22,0,0,1,2.2-2.2Z"/></svg>