<svg xmlns="http://www.w3.org/2000/svg" width="32" height="32" viewBox="0 0 32 32">
  <defs>
    <linearGradient id="gitlab-a" x1="50%" x2="50%" y1="0%" y2="100%">
      <stop offset="0%" stop-color="#EA7D7F"/>
      <stop offset="100%" stop-color="#D14748"/>
    </linearGradient>
    <linearGradient id="gitlab-b" x1="50%" x2="50%" y1="0%" y2="100%">
      <stop offset="0%" stop-color="#FAE1AD"/>
      <stop offset="100%" stop-color="#F4BF75"/>
    </linearGradient>
    <linearGradient id="gitlab-c" x1="50%" x2="50%" y1="0%" y2="100%">
      <stop offset="0%" stop-color="#EA7D7F"/>
      <stop offset="100%" stop-color="#D14748"/>
    </linearGradient>
  </defs>
  <g fill="none" transform="translate(4 5)">
    <polygon fill="url(#gitlab-a)" points="12.007 21.914 12.007 21.914 16.423 8.457 7.591 8.457"/>
    <path fill="url(#gitlab-b)" d="M12.0070172,21.9140815 L1.40210286,8.45691705 L7.59101714,8.45691705 L12.0070172,21.9140815 Z M1.40211428,8.456951 L12.0070285,21.9141154 L0.392285714,13.5585675 C0.0718285715,13.3280595 -0.0622285715,12.9194369 0.0601714285,12.5464597 L1.40211428,8.456951 Z"/>
    <path fill="url(#gitlab-c)" d="M1.40211428,8.45696232 L7.59102857,8.45696232 L4.93125714,0.351838746 C4.79445714,-0.0652709986 4.19857143,-0.0651578381 4.06177143,0.351838746 L1.40211428,8.45696232 L1.40211428,8.45696232 Z"/>
    <path fill="url(#gitlab-b)" d="M12.0070172,21.9140815 L16.4230172,8.45691705 L22.6119314,8.45691705 L12.0070172,21.9140815 Z M22.6119314,8.456951 L23.9538743,12.5464597 C24.0762743,12.9194369 23.9422172,13.3280595 23.62176,13.5585675 L12.0070172,21.9141154 L22.6119314,8.456951 Z"/>
    <path fill="url(#gitlab-c)" d="M22.6119314,8.45696232 L16.4230172,8.45696232 L19.0827886,0.351838746 C19.2195886,-0.0652709986 19.8154743,-0.0651578381 19.9522743,0.351838746 L22.6119314,8.45696232 L22.6119314,8.45696232 Z"/>
  </g>
</svg>
