<svg xmlns="http://www.w3.org/2000/svg" width="32" height="32" viewBox="0 0 32 32">
  <defs>
    <linearGradient id="graphql-a" x1="50%" x2="50%" y1="0%" y2="100%">
      <stop offset="0%" stop-color="#FFA7CD"/>
      <stop offset="100%" stop-color="#FF6E9F"/>
    </linearGradient>
    <linearGradient id="graphql-b" x1="50%" x2="50%" y1="0%" y2="100%">
      <stop offset="0%" stop-color="#FFA7CD"/>
      <stop offset="100%" stop-color="#FF6E9F"/>
    </linearGradient>
  </defs>
  <path fill="url(#graphql-a)" stroke="url(#graphql-b)" stroke-width=".5" d="M8.52969917,21.2050935 L3.71482266,18.3721559 C3.58066653,18.5156545 3.42446556,18.6424727 3.24764673,18.747132 C2.24285234,19.332252 0.968852336,18.9848387 0.394656075,17.9669987 C-0.179527103,16.949132 0.161392523,15.6508653 1.16020748,15.0596653 C1.33676773,14.9562365 1.52192556,14.8819456 1.71032897,14.8353448 L1.71032897,9.16614137 C1.51975615,9.11962871 1.33252753,9.04490003 1.15425421,8.94046533 C0.155413084,8.35534533 -0.185493458,7.05099867 0.388702804,6.033132 C0.962885981,5.01526533 2.24285234,4.66786533 3.24169346,5.25299867 C3.42034144,5.35874027 3.57794261,5.48709953 3.71302562,5.63242692 L8.53047171,2.79797745 C8.47496323,2.60634154 8.44517944,2.4033698 8.44517944,2.19319867 C8.44517944,1.01686533 9.37820748,0.0660653333 10.5325533,0.0660653333 C11.6868991,0.0660653333 12.6199271,1.01686533 12.6199271,2.19319867 C12.6199271,2.40447802 12.5898284,2.60848186 12.5337546,2.80100796 L17.349997,5.63474924 C17.4855567,5.48846568 17.6438823,5.35930195 17.8234785,5.25299867 C18.8223196,4.66787867 20.0963196,5.015292 20.6764692,6.033132 C21.2506523,7.05099867 20.9097327,8.34926533 19.9109178,8.94046533 C19.7326033,9.04492173 19.5453299,9.11965842 19.3547121,9.16616664 L19.3547121,14.8354194 C19.5432758,14.8820274 19.728507,14.9562944 19.9049645,15.0596653 C20.9097589,15.6508787 21.2507308,16.949132 20.6705159,17.9669987 C20.0963327,18.9848653 18.8163664,19.3322653 17.8175252,18.747132 C17.6188104,18.6307251 17.4461361,18.4858517 17.3015274,18.3204309 L12.5145487,21.137004 C12.5829275,21.3476404 12.6199271,21.5729477 12.6199271,21.8071987 C12.6199271,22.9774653 11.6868991,23.934332 10.5325533,23.934332 C9.37820748,23.934332 8.44517944,22.983532 8.44517944,21.8071987 C8.44517944,21.5980047 8.47468694,21.3959433 8.52969917,21.2050935 Z M9.02896102,20.3305591 C9.40843357,19.9293524 9.94148014,19.6800653 10.5325533,19.6800653 C11.1448199,19.6800653 11.6948241,19.9475497 12.0763678,20.3742975 L16.8726237,17.5523042 C16.8581577,17.5060412 16.8452363,17.4592875 16.8338824,17.412132 L4.23073947,17.412132 C4.22404167,17.43978 4.21680325,17.4672909 4.20902882,17.4946469 L9.02896102,20.3305591 Z M2.78573865,14.8605818 L9.0906655,3.73242135 C9.07033126,3.71263717 9.05038955,3.69243775 9.03085338,3.67183633 L4.20474662,6.51134792 C4.3551687,7.04633588 4.3007881,7.63997355 4.00724486,8.160332 C3.71335658,8.68131397 3.23456915,9.02664892 2.70321682,9.1611964 L2.70321682,14.8379968 C2.73087008,14.8449545 2.75838348,14.8524844 2.78573865,14.8605818 Z M18.3618243,14.8374689 L18.3618243,9.16114718 C17.8305279,9.02657334 17.3517971,8.681256 17.0579271,8.160332 C16.7649636,7.6409894 16.7102298,7.04864995 16.8595615,6.51447673 L12.0320812,3.67412336 C12.0137807,3.69336425 11.9951258,3.71225304 11.9761273,3.73077889 L18.2812842,14.8593454 C18.3079852,14.851513 18.3348377,14.8442193 18.3618243,14.8374689 Z M16.831967,16.400332 C16.8777068,16.2082457 16.9505703,16.0195548 17.0519738,15.8397987 C17.1540571,15.6588335 17.2784493,15.499061 17.4196044,15.3619539 L11.1161339,4.2363639 C10.9309928,4.29103503 10.7351828,4.320332 10.5325533,4.320332 C10.3307417,4.320332 10.1356946,4.29127106 9.95121504,4.23702469 L3.64644665,15.3649054 C3.78676367,15.5013523 3.91079073,15.6601306 4.01319813,15.8397987 C4.11468193,16.0197011 4.18757914,16.2083629 4.23330986,16.400332 L16.831967,16.400332 Z" transform="translate(6 4)"/>
</svg>
