<svg xmlns="http://www.w3.org/2000/svg" width="32" height="32" viewBox="0 0 32 32">
  <defs>
    <linearGradient id="haskell-a" x1="50%" x2="50%" y1="0%" y2="100%">
      <stop offset="0%" stop-color="#B889D3"/>
      <stop offset="100%" stop-color="#8251A8"/>
    </linearGradient>
    <linearGradient id="haskell-b" x1="50%" x2="50%" y1="0%" y2="100%">
      <stop offset="0%" stop-color="#6B9EDF"/>
      <stop offset="100%" stop-color="#3965BD"/>
    </linearGradient>
    <linearGradient id="haskell-c" x1="50%" x2="50%" y1="0%" y2="100%">
      <stop offset="0%" stop-color="#B889D3"/>
      <stop offset="100%" stop-color="#8251A8"/>
    </linearGradient>
  </defs>
  <g fill="none" fill-rule="evenodd" transform="translate(4 7)">
    <polygon fill="url(#haskell-a)" points="5.636 16.753 11.307 8.5 5.636 .247 9.889 .247 21.196 16.751 16.942 16.751 13.415 11.613 9.887 16.751 5.633 16.751"/>
    <polygon fill="url(#haskell-b)" points="0 16.753 5.638 8.5 0 .247 4.22 .247 9.891 8.5 4.22 16.753 0 16.753"/>
    <polygon fill="#8251A8" points="24 11.938 19.287 11.938 17.407 9.209 24 9.209"/>
    <polygon fill="url(#haskell-c)" points="24 7.828 16.482 7.828 14.603 5.066 23.998 5.066 23.998 7.828"/>
  </g>
</svg>
