<svg xmlns="http://www.w3.org/2000/svg" width="32" height="32" viewBox="0 0 32 32">
  <defs>
    <linearGradient id="html-a" x1="50%" x2="50%" y1="0%" y2="100%">
      <stop offset="0%" stop-color="#D5AD91"/>
      <stop offset="100%" stop-color="#AB7558"/>
    </linearGradient>
    <linearGradient id="html-b" x1="50%" x2="50%" y1="0%" y2="100%">
      <stop offset="0%" stop-color="#F8CC95"/>
      <stop offset="100%" stop-color="#EE9D5C"/>
    </linearGradient>
  </defs>
  <g fill="none" transform="translate(5 3)">
    <path fill="url(#html-a)" d="M11,4.89386161 L4.10989011,4.89386161 L4.85934066,13.5199033 L11,13.5199033 L11,18.0906994 L7.92967033,17.2356399 L7.73626374,14.9533854 L4.98021978,14.9533854 L5.36703297,19.4361607 L11,21.0708333 L11,26 L2.03076923,23.422247 L0.0362637363,0.134449405 L11,0.134449405 L11,4.89386161 Z M11,7.74825149 L11,10.6718006 L7.37362637,10.6718006 L7.11978022,7.74825149 L11,7.74825149 Z"/>
    <path fill="url(#html-b)" d="M11,21.0547705 L16.6087912,19.4361607 L17.3642857,10.6718006 L11,10.6718006 L11,7.74825149 L17.6120879,7.74825149 L17.8659341,4.89386161 L11,4.89386161 L11,0.134449405 L21.9637363,0.134449405 L19.8715331,23.5207555 L11,26 L11,21.0547705 Z M11,18.0873264 L11,13.5261905 L14.3725275,13.5261905 L14.0521978,17.2356399 L11,18.0873264 Z"/>
  </g>
</svg>
