<svg xmlns="http://www.w3.org/2000/svg" width="32" height="32" viewBox="0 0 32 32">
  <defs>
    <linearGradient id="less-a" x1="50%" x2="50%" y1="0%" y2="100%">
      <stop offset="0%" stop-color="#A3CDDB"/>
      <stop offset="100%" stop-color="#6A9FB5"/>
    </linearGradient>
    <linearGradient id="less-b" x1="50%" x2="50%" y1="0%" y2="100%">
      <stop offset="0%" stop-color="#B1E8F8"/>
      <stop offset="100%" stop-color="#7ACCEE"/>
    </linearGradient>
    <linearGradient id="less-c" x1="50%" x2="50%" y1="0%" y2="100%">
      <stop offset="0%" stop-color="#B1E8F8"/>
      <stop offset="100%" stop-color="#7ACCEE"/>
    </linearGradient>
  </defs>
  <g fill="none" fill-rule="evenodd">
    <path fill="url(#less-a)" fill-rule="nonzero" d="M23.5993432,16.2994242 C24.4318555,16.5738964 25.3497537,17.059501 25.3497537,18.2207294 C25.3497537,19.3819578 24.4318555,20.268714 22.7241379,20.268714 C21.9129721,20.268714 20.9310345,19.9097889 20.2906404,19.3819578 L21.1444992,18.1573896 C21.7208539,18.6007678 22.2545156,18.8119002 22.7881773,18.8119002 C23.364532,18.8119002 23.6206897,18.6007678 23.6206897,18.2840691 C23.6206897,17.8618042 22.9802956,17.6506718 22.318555,17.3973129 C21.5500821,17.1017274 20.6321839,16.5738964 20.6321839,15.5393474 C20.6321839,14.378119 21.6141215,13.5547025 23.0656814,13.5547025 C24.047619,13.5547025 24.773399,13.9769674 25.3070608,14.378119 L24.453202,15.4971209 C23.9835796,15.159309 23.5566502,14.9692898 23.0870279,14.9692898 C22.6174056,14.9692898 22.3612479,15.159309 22.3612479,15.4760077 C22.3612479,15.8982726 22.9589491,16.0460653 23.5993432,16.2994242 Z M18.4334975,16.2994242 C19.2660099,16.5738964 20.183908,17.059501 20.183908,18.2207294 C20.183908,19.3819578 19.2660099,20.268714 17.5582923,20.268714 C16.7471264,20.268714 15.7651888,19.9097889 15.1247947,19.3819578 L15.9573071,18.1573896 C16.5336617,18.6007678 17.0673235,18.8119002 17.6009852,18.8119002 C18.1773399,18.8119002 18.4334975,18.6007678 18.4334975,18.2840691 C18.4334975,17.8618042 17.7931034,17.6506718 17.1313629,17.3973129 C16.36289,17.1017274 15.4449918,16.5738964 15.4449918,15.5393474 C15.4449918,14.378119 16.4269294,13.5547025 17.8784893,13.5547025 C18.8604269,13.5547025 19.5862069,13.9769674 20.1198686,14.378119 L19.2660099,15.4971209 C18.7963875,15.159309 18.3694581,14.9692898 17.8998358,14.9692898 C17.4302135,14.9692898 17.1740558,15.159309 17.1740558,15.4760077 C17.1740558,15.8982726 17.771757,16.0460653 18.4334975,16.2994242 Z M12.136289,13.5335893 C13.9293924,13.5335893 14.8686371,14.8637236 14.8472906,16.5738964 C14.8472906,16.9117083 14.8045977,17.2072937 14.7832512,17.3550864 L10.9195402,17.3550864 C11.090312,18.3262956 11.7520525,18.7274472 12.6059113,18.7274472 C13.0755337,18.7274472 13.5238095,18.6007678 13.9934319,18.3262956 L14.6338259,19.4452975 C13.9720854,19.8886756 13.1182266,20.1631478 12.3497537,20.1631478 C10.5139573,20.1631478 9.12643678,18.9385797 9.12643678,16.8483685 C9.08374384,14.8214971 10.5779967,13.5335893 12.136289,13.5335893 Z M10.9195402,16.193858 L13.2249589,16.193858 C13.2249589,15.4760077 12.9261084,14.9481766 12.1576355,14.9481766 C11.5599343,14.9481766 11.047619,15.3493282 10.9195402,16.193858 Z M8.67816092,18.1573896 C8.67816092,18.5585413 9.14778325,18.6852207 9.27586207,18.6641075 L9.48932677,20.0364683 C9.2545156,20.1209213 8.93431856,20.184261 8.52873563,20.184261 C7.22660099,20.184261 6.77832512,19.3397313 6.77832512,18.0518234 C6.77832512,18.0518234 6.77832512,13.3646833 6.77832512,11.9923225 C6.77832512,11.4882862 6.77832512,11.1575121 6.77832512,11 C6.84378512,11 7.13058476,11 7.63872404,11 L8.67816092,11 L8.67816092,11.084453 L8.67816092,12.0134357 L8.67816092,18.1573896 Z"/>
    <path fill="url(#less-b)" d="M6.78163399,11 C6.68201714,11 6.30379322,11 5.64696223,11 C4.49425287,11 3.9819376,11.4433781 3.9819376,12.815739 C3.9819376,13.7236084 4.11001642,14.2303263 4.11001642,15.0115163 C4.11001642,15.4548944 3.83251232,15.9193858 3,15.9616123 L3,17.059501 C3.83251232,17.0806142 4.11001642,17.5451056 4.11001642,17.9884837 C4.11001642,18.7696737 3.9819376,19.2341651 3.9819376,20.1420345 C3.9819376,21.5143954 4.49425287,21.9577735 5.62561576,21.9577735 L6.45812808,21.9577735 L6.45812808,20.9865643 L6.20197044,20.9865643 C5.6683087,20.9865643 5.49753695,20.7754319 5.49753695,20.0786948 C5.49753695,19.3819578 5.56157635,18.7907869 5.56157635,18.0095969 C5.56157635,17.0383877 5.24137931,16.6583493 4.60098522,16.5105566 L4.60098522,16.4472169 C5.24137931,16.2994242 5.56157635,15.9193858 5.56157635,14.9481766 C5.56157635,14.1880998 5.49753695,13.5758157 5.49753695,12.8790787 C5.49753695,12.1823417 5.64696223,11.9923225 6.20197044,11.9923225 C6.58841281,11.9923225 6.78163399,11.9923225 6.78163399,11.9923225 C6.78163399,11.6274821 6.78163399,11.226619 6.78163399,11 Z"/>
    <path fill="url(#less-c)" d="M27.8899836,15.0115163 C27.8899836,14.1880998 28.0180624,13.7024952 28.0180624,12.815739 C28.0180624,11.4433781 27.5057471,11 26.3743842,11 L25.5418719,11 L25.5418719,11.9712092 L25.7980296,11.9712092 C26.3743842,11.9712092 26.5024631,12.1612284 26.5024631,12.8579655 C26.5024631,13.512476 26.4384236,14.1669866 26.4384236,14.9270633 C26.4384236,15.8982726 26.7586207,16.2783109 27.3990148,16.4261036 L27.3990148,16.4894434 C26.7586207,16.6372361 26.4384236,17.0172745 26.4384236,17.9884837 C26.4384236,18.7485605 26.5024631,19.3608445 26.5024631,20.0575816 C26.5024631,20.7754319 26.3530378,20.9654511 25.7980296,20.9654511 L25.7980296,20.9865643 L25.5418719,20.9865643 L25.5418719,22 L26.3743842,22 C27.5057471,22 28.0180624,21.5566219 28.0180624,20.184261 C28.0180624,19.2763916 27.8899836,18.8119002 27.8899836,17.9884837 C27.8899836,17.5451056 28.1674877,17.0806142 29,17.0383877 L29,15.940499 C28.1674877,15.9193858 27.8899836,15.4548944 27.8899836,15.0115163 Z"/>
  </g>
</svg>
