<svg xmlns="http://www.w3.org/2000/svg" width="32" height="32" viewBox="0 0 32 32">
  <defs>
    <linearGradient id="package-lock-a" x1="50%" x2="50%" y1="0%" y2="100%">
      <stop offset="0%" stop-color="#EA7D7F"/>
      <stop offset="100%" stop-color="#D14748"/>
    </linearGradient>
    <filter id="package-lock-c" width="141.7%" height="131.2%" x="-20.8%" y="-15.6%" filterUnits="objectBoundingBox">
      <feOffset dx="-1" in="SourceAlpha" result="shadowOffsetOuter1"/>
      <feColorMatrix in="shadowOffsetOuter1" result="shadowMatrixOuter1" values="0 0 0 0 0   0 0 0 0 0   0 0 0 0 0  0 0 0 0.2 0"/>
      <feMerge>
        <feMergeNode in="shadowMatrixOuter1"/>
        <feMergeNode in="SourceGraphic"/>
      </feMerge>
    </filter>
    <linearGradient id="package-lock-b" x1="50%" x2="50%" y1="0%" y2="100%">
      <stop offset="0%" stop-color="#FAE1AD"/>
      <stop offset="100%" stop-color="#F4BF75"/>
    </linearGradient>
  </defs>
  <g fill="none" fill-rule="evenodd">
    <path fill="url(#package-lock-a)" d="M5.84615385,5.84615385 L5.84615385,26.1538462 L26.1538462,26.1538462 L26.1538462,5.84615385 L5.84615385,5.84615385 Z M5.84615385,4 L26.1538462,4 L28,4 L28,27.0769231 L28,28 L4.92307692,28 L4,28 L4,4 L5.84615385,4 Z M19.2820513,12.7179487 L16,12.7179487 L16,23.3846154 L8.61538462,23.3846154 L8.61538462,8.61538462 L16,8.61538462 L23.3846154,8.61538462 L23.3846154,12.7179487 L23.3846154,23.3846154 L19.2820513,23.3846154 L19.2820513,12.7179487 Z"/>
    <g fill="url(#package-lock-b)" fill-rule="nonzero" filter="url(#package-lock-c)" transform="translate(20 16)">
      <path d="M10.5,5.33333333 L9.75,5.33333333 L9.75,3.80952381 C9.75,1.70666667 8.07,0 6,0 C3.93,0 2.25,1.70666667 2.25,3.80952381 L2.25,5.33333333 L1.5,5.33333333 C0.675,5.33333333 0,6.01904762 0,6.85714286 L0,14.4761905 C0,15.3142857 0.675,16 1.5,16 L10.5,16 C11.325,16 12,15.3142857 12,14.4761905 L12,6.85714286 C12,6.01904762 11.325,5.33333333 10.5,5.33333333 Z M6,12.1904762 C5.175,12.1904762 4.5,11.5047619 4.5,10.6666667 C4.5,9.82857143 5.175,9.14285714 6,9.14285714 C6.825,9.14285714 7.5,9.82857143 7.5,10.6666667 C7.5,11.5047619 6.825,12.1904762 6,12.1904762 Z M8.325,5.33333333 L3.675,5.33333333 L3.675,3.80952381 C3.675,2.50666667 4.7175,1.44761905 6,1.44761905 C7.2825,1.44761905 8.325,2.50666667 8.325,3.80952381 L8.325,5.33333333 Z"/>
    </g>
  </g>
</svg>
