<svg xmlns="http://www.w3.org/2000/svg" width="32" height="32" viewBox="0 0 32 32">
  <defs>
    <linearGradient id="prettier-a" x1="50%" x2="50%" y1="0%" y2="100%">
      <stop offset="0%" stop-color="#B7E7E4"/>
      <stop offset="100%" stop-color="#80CBC4"/>
    </linearGradient>
    <linearGradient id="prettier-b" x1="50%" x2="50%" y1="0%" y2="100%">
      <stop offset="0%" stop-color="#EA7D7F"/>
      <stop offset="100%" stop-color="#D14748"/>
    </linearGradient>
    <linearGradient id="prettier-c" x1="50%" x2="50%" y1="0%" y2="100%">
      <stop offset="0%" stop-color="#D5ADCD"/>
      <stop offset="100%" stop-color="#AA759F"/>
    </linearGradient>
    <linearGradient id="prettier-d" x1="50%" x2="50%" y1="0%" y2="100%">
      <stop offset="0%" stop-color="#EA7D7F"/>
      <stop offset="100%" stop-color="#D14748"/>
    </linearGradient>
    <linearGradient id="prettier-e" x1="50%" x2="50%" y1="0%" y2="100%">
      <stop offset="0%" stop-color="#B7E7E4"/>
      <stop offset="100%" stop-color="#80CBC4"/>
    </linearGradient>
    <linearGradient id="prettier-f" x1="50%" x2="50%" y1="0%" y2="100%">
      <stop offset="0%" stop-color="#D5ADCD"/>
      <stop offset="100%" stop-color="#AA759F"/>
    </linearGradient>
    <linearGradient id="prettier-g" x1="50%" x2="50%" y1="0%" y2="100%">
      <stop offset="0%" stop-color="#FAE1AD"/>
      <stop offset="100%" stop-color="#F4BF75"/>
    </linearGradient>
    <linearGradient id="prettier-h" x1="50%" x2="50%" y1="0%" y2="100%">
      <stop offset="0%" stop-color="#EA7D7F"/>
      <stop offset="100%" stop-color="#D14748"/>
    </linearGradient>
    <linearGradient id="prettier-i" x1="50%" x2="50%" y1="0%" y2="100%">
      <stop offset="0%" stop-color="#FAE1AD"/>
      <stop offset="100%" stop-color="#F4BF75"/>
    </linearGradient>
    <linearGradient id="prettier-j" x1="50%" x2="50%" y1="0%" y2="100%">
      <stop offset="0%" stop-color="#B7E7E4"/>
      <stop offset="100%" stop-color="#80CBC4"/>
    </linearGradient>
    <linearGradient id="prettier-k" x1="50%" x2="50%" y1="0%" y2="100%">
      <stop offset="0%" stop-color="#FAE1AD"/>
      <stop offset="100%" stop-color="#F4BF75"/>
    </linearGradient>
    <linearGradient id="prettier-l" x1="50%" x2="50%" y1="0%" y2="100%">
      <stop offset="0%" stop-color="#B7E7E4"/>
      <stop offset="100%" stop-color="#80CBC4"/>
    </linearGradient>
    <linearGradient id="prettier-m" x1="50%" x2="50%" y1="0%" y2="100%">
      <stop offset="0%" stop-color="#FAE1AD"/>
      <stop offset="100%" stop-color="#F4BF75"/>
    </linearGradient>
    <linearGradient id="prettier-n" x1="50%" x2="50%" y1="0%" y2="100%">
      <stop offset="0%" stop-color="#EA7D7F"/>
      <stop offset="100%" stop-color="#D14748"/>
    </linearGradient>
    <linearGradient id="prettier-o" x1="50%" x2="50%" y1="0%" y2="100%">
      <stop offset="0%" stop-color="#D5ADCD"/>
      <stop offset="100%" stop-color="#AA759F"/>
    </linearGradient>
    <linearGradient id="prettier-p" x1="50%" x2="50%" y1="0%" y2="100%">
      <stop offset="0%" stop-color="#B7E7E4"/>
      <stop offset="100%" stop-color="#80CBC4"/>
    </linearGradient>
    <linearGradient id="prettier-q" x1="50%" x2="50%" y1="0%" y2="100%">
      <stop offset="0%" stop-color="#FAE1AD"/>
      <stop offset="100%" stop-color="#F4BF75"/>
    </linearGradient>
    <linearGradient id="prettier-r" x1="50%" x2="50%" y1="0%" y2="100%">
      <stop offset="0%" stop-color="#D5ADCD"/>
      <stop offset="100%" stop-color="#AA759F"/>
    </linearGradient>
    <linearGradient id="prettier-s" x1="50%" x2="50%" y1="0%" y2="100%">
      <stop offset="0%" stop-color="#FAE1AD"/>
      <stop offset="100%" stop-color="#F4BF75"/>
    </linearGradient>
    <linearGradient id="prettier-t" x1="50%" x2="50%" y1="0%" y2="100%">
      <stop offset="0%" stop-color="#B7E7E4"/>
      <stop offset="100%" stop-color="#80CBC4"/>
    </linearGradient>
  </defs>
  <g fill="none" transform="translate(7 4)">
    <rect width="2.222" height="1.137" x="16.667" y="4.611" fill="url(#prettier-a)" rx=".568"/>
    <rect width="6.667" height="1.137" y="22.8" fill="url(#prettier-b)" rx=".568"/>
    <rect width="4.444" height="1.137" x="13.333" y="13.705" fill="url(#prettier-c)" rx=".568"/>
    <rect width="5.556" height="1.137" x="6.667" y="13.705" fill="url(#prettier-d)" rx=".568"/>
    <rect width="5.556" height="1.137" y="13.705" fill="url(#prettier-e)" rx=".568"/>
    <rect width="6.667" height="1.137" y="18.253" fill="url(#prettier-f)" rx=".568"/>
    <rect width="6.667" height="1.137" y="9.158" fill="url(#prettier-f)" rx=".568"/>
    <rect width="12.222" height="1.137" x="5.556" y="2.337" fill="url(#prettier-g)" rx=".568"/>
    <rect width="4.444" height="1.137" y="2.337" fill="url(#prettier-h)" rx=".568"/>
    <rect width="2.222" height="1.137" x="4.444" y="20.526" fill="url(#prettier-i)" rx=".568"/>
    <rect width="2.222" height="1.137" x="4.444" y="6.884" fill="url(#prettier-a)" rx=".568"/>
    <rect width="3.333" height="1.137" y="20.526" fill="url(#prettier-j)" rx=".568"/>
    <rect width="3.333" height="1.137" y="6.884" fill="url(#prettier-k)" rx=".568"/>
    <rect width="10" height="1.137" x="8.889" y="11.432" fill="url(#prettier-l)" rx=".568"/>
    <rect width="4.444" height="1.137" x="3.333" y="11.432" fill="url(#prettier-m)" rx=".568"/>
    <rect width="2.222" height="1.137" y="11.432" fill="url(#prettier-n)" rx=".568"/>
    <rect width="5.556" height="1.137" x="10" y="4.611" fill="url(#prettier-o)" rx=".568"/>
    <rect width="8.889" height="1.137" y="4.611" fill="url(#prettier-p)" rx=".568"/>
    <rect width="11.111" height="1.137" x="3.333" y="15.979" fill="url(#prettier-q)" rx=".568"/>
    <rect width="2.222" height="1.137" y="15.979" fill="url(#prettier-r)" rx=".568"/>
    <rect width="6.667" height="1.137" x="13.333" y="6.884" fill="url(#prettier-b)" rx=".568"/>
    <rect width="6.667" height="1.137" x="13.333" y="9.158" fill="url(#prettier-s)" rx=".568"/>
    <rect width="14.444" height="1.137" y=".063" fill="url(#prettier-t)" rx=".568"/>
  </g>
</svg>
